<svg xmlns="http://www.w3.org/2000/svg" xmlns:xlink="http://www.w3.org/1999/xlink" version="1.1" x="0px" y="0px" viewBox="0 0 30 37.5" enable-background="new 0 0 30 30" xml:space="preserve"><g><path d="M-117,38.674h53.561V-2.234H-117V38.674z M-111.995,8.952h43.55v24.72h-43.55C-111.995,33.672-111.995,8.952-111.995,8.952   z"/><polygon points="-110.562,-8.673 -110.562,-4.054 -63.622,-4.054 -61.62,-4.054 -61.62,-2.051 -61.62,32.236 -57,32.236    -57,-8.673  "/></g><g><path d="M-48,30.782h35.708V3.511H-48V30.782z M-44.663,10.968h29.034v16.48h-29.034V10.968z"/><polygon points="-43.708,-0.782 -43.708,2.297 -12.415,2.297 -11.08,2.297 -11.08,3.632 -11.08,26.491 -8,26.491 -8,-0.782  "/></g><g><path d="M0,26.837h26.781V6.383H0V26.837z M2.503,11.976h21.775v12.36H2.503V11.976z"/><polygon points="3.219,3.163 3.219,5.473 26.689,5.473 27.69,5.473 27.69,6.474 27.69,23.618 30,23.618 30,3.163  "/></g><g><path d="M36,22.891h17.854V9.255H36V22.891z M37.668,12.984h14.517v8.24H37.668V12.984z"/><polygon points="38.146,7.109 38.146,8.649 53.792,8.649 54.46,8.649 54.46,9.316 54.46,20.746 56,20.746 56,7.109  "/></g><text x="0" y="45" fill="#000000" font-size="5px" font-weight="bold" font-family="'Helvetica Neue', Helvetica, Arial-Unicode, Arial, Sans-serif">Created by Alex Auda Samora</text><text x="0" y="50" fill="#000000" font-size="5px" font-weight="bold" font-family="'Helvetica Neue', Helvetica, Arial-Unicode, Arial, Sans-serif">from the Noun Project</text></svg>